<svg xmlns="http://www.w3.org/2000/svg" width="252" height="250" viewBox="0 0 252 250" version="1.1"><path d="M 95.392 48.526 C 99.979 55.051, 101.010 55.942, 105.500 57.258 C 108.250 58.064, 110.658 58.591, 110.851 58.428 C 111.044 58.265, 110.185 56.322, 108.942 54.111 C 107.352 51.281, 105.477 49.608, 102.613 48.462 C 100.375 47.566, 96.685 45.579, 94.414 44.046 L 90.284 41.260 95.392 48.526 M 83.612 60.829 C 86.025 64.428, 88 67.678, 88 68.053 C 88 68.860, 98.137 73.196, 98.703 72.631 C 98.917 72.417, 98.089 70.178, 96.863 67.655 C 95.461 64.770, 93.682 62.730, 92.067 62.157 C 90.655 61.655, 87.188 59.679, 84.362 57.765 L 79.223 54.285 83.612 60.829 M 68.760 69.232 C 70.950 72.384, 73.315 76.347, 74.016 78.038 C 74.872 80.106, 76.869 81.914, 80.111 83.556 C 82.764 84.900, 85.146 86, 85.406 86 C 85.666 86, 85.183 83.959, 84.334 81.465 C 83.055 77.713, 81.728 76.222, 76.644 72.825 C 73.265 70.567, 69.212 67.545, 67.639 66.110 C 65.171 63.859, 65.325 64.288, 68.760 69.232 M 107.336 69.434 C 107.706 70.398, 108.272 72.236, 108.594 73.520 C 109.043 75.308, 110.112 76.012, 113.158 76.527 C 115.345 76.896, 117.374 76.959, 117.667 76.666 C 118.617 75.716, 115.884 69, 114.547 69 C 113.834 69, 111.768 68.704, 109.957 68.341 C 107.098 67.770, 106.753 67.913, 107.336 69.434 M 57.392 82.907 C 66.265 99.290, 64.380 120.514, 52.736 135.309 L 49.739 139.118 52.566 142.069 L 55.394 145.021 58.947 141.610 C 63.165 137.560, 74.145 129.811, 74.774 130.440 C 75.561 131.228, 68.675 142.389, 64.815 146.581 L 61.056 150.662 64.341 153.845 L 67.625 157.028 70.062 154.372 C 72.794 151.395, 87.064 141.730, 87.735 142.402 C 88.435 143.102, 81.323 153.694, 77.018 158.365 L 73.048 162.672 75.932 165.435 L 78.817 168.199 84.419 164.060 C 90.088 159.872, 99.163 154.829, 99.830 155.496 C 100.430 156.097, 93.878 165.183, 89.312 170.082 L 85.040 174.664 87.902 177.406 L 90.764 180.148 97.277 175.689 C 106.871 169.121, 112.440 167.488, 125 167.561 C 137.238 167.632, 143.656 169.638, 152.214 176.068 C 155.091 178.231, 157.712 180, 158.036 180 C 158.360 180, 159.863 178.709, 161.375 177.131 L 164.124 174.262 160.169 170.876 C 151.617 163.557, 136.262 158.030, 124.500 158.038 C 121.750 158.040, 116.688 158.631, 113.250 159.351 C 109.813 160.072, 107 160.569, 107 160.456 C 107 160.344, 108.131 158.228, 109.514 155.755 C 111.616 151.992, 112.638 151.156, 115.764 150.640 C 131.104 148.104, 151.239 153.607, 163.736 163.750 C 166.616 166.088, 169.344 168, 169.799 168 C 170.254 168, 171.837 166.736, 173.317 165.191 L 176.008 162.382 173.254 159.884 C 160.613 148.420, 143.478 141.831, 125.751 141.617 C 120.389 141.553, 116.001 141.327, 116.001 141.116 C 116 140.905, 116.540 138.930, 117.200 136.728 L 118.399 132.725 127.450 133.319 C 138.832 134.067, 145.585 135.508, 154.276 139.045 C 162.884 142.548, 170.669 147.243, 176.882 152.678 L 181.706 156.898 184.905 153.598 L 188.103 150.298 184.585 147.209 C 169.328 133.813, 148.486 125.370, 129.164 124.760 L 120.926 124.500 121.213 120.500 L 121.500 116.500 129.500 116.814 C 150.895 117.656, 173.325 126.596, 188.685 140.407 L 193.694 144.911 196.957 141.544 L 200.219 138.178 192.146 131.795 C 187.706 128.284, 181.244 123.735, 177.787 121.687 C 164.356 113.729, 144.383 108.045, 129.750 108.016 C 122.154 108, 122 107.950, 122 105.500 C 122 103.250, 121.600 103, 118 103 C 114.456 103, 114 103.271, 114 105.375 C 114 107.235, 113.322 107.886, 110.875 108.375 C 105.466 109.457, 105 109.233, 105 105.559 C 105 101.717, 104.812 101.517, 100.302 100.550 L 97.104 99.864 96.802 105.576 L 96.500 111.288 92.329 112.515 L 88.158 113.742 88.158 105.783 C 88.158 101.406, 87.903 97.569, 87.591 97.257 C 87.279 96.945, 85.263 95.902, 83.113 94.939 L 79.202 93.188 79.735 100.960 C 80.028 105.234, 79.967 110.704, 79.600 113.116 C 78.992 117.109, 78.478 117.752, 73.830 120.326 C 70.088 122.398, 68.890 122.729, 69.336 121.566 C 70.943 117.380, 72.179 106.173, 71.590 101.130 C 70.298 90.061, 69.605 88.780, 61.725 82.895 L 54.436 77.450 57.392 82.907 M 94.457 85.250 C 95.514 88.859, 96.275 89.692, 99.496 90.772 C 101.583 91.471, 103.479 91.855, 103.709 91.624 C 103.940 91.393, 103.830 89.610, 103.464 87.662 C 102.880 84.548, 102.246 83.931, 98.222 82.560 C 95.704 81.702, 93.546 81, 93.427 81 C 93.308 81, 93.772 82.912, 94.457 85.250 M 112.525 89.188 C 113.521 93.831, 113.699 94, 117.619 94 C 121.054 94, 121.115 93.928, 120.810 90.250 C 120.508 86.596, 120.389 86.492, 116.157 86.188 L 111.814 85.876 112.525 89.188 M 106.869 117.705 C 104.663 118.044, 104.133 118.768, 103.586 122.188 C 103.227 124.432, 103.085 126.418, 103.269 126.603 C 103.454 126.787, 105.305 126.663, 107.382 126.325 C 111.240 125.699, 113 123.384, 113 118.935 C 113 116.980, 112.380 116.856, 106.869 117.705 M 89.817 122.632 C 86.828 123.872, 85.838 125.027, 84.570 128.750 C 83.709 131.274, 83.133 133.467, 83.289 133.623 C 83.445 133.778, 85.704 133.140, 88.308 132.203 C 92.314 130.763, 93.194 129.960, 94.016 127 C 95.837 120.448, 95.620 120.223, 89.817 122.632 M 102.500 136.084 C 100.202 136.777, 98.989 138.159, 97.314 141.994 C 96.111 144.747, 95.436 147, 95.814 146.999 C 96.191 146.999, 98.695 146.165, 101.379 145.145 C 105.119 143.725, 106.578 142.532, 107.629 140.031 C 108.383 138.238, 109 136.372, 109 135.885 C 109 134.803, 106.499 134.879, 102.500 136.084 M 53.524 197.250 C 53.297 197.938, 52.239 202.929, 51.172 208.343 L 49.232 218.185 58.552 217.843 C 67.272 217.522, 68.069 217.312, 70.924 214.575 C 76.664 209.072, 75.847 200.087, 69.360 197.377 C 65.145 195.616, 54.093 195.527, 53.524 197.250 M 79.516 198.250 C 78.102 204.344, 76 215.293, 76 216.565 C 76 217.530, 77.112 218, 79.392 218 C 82.175 218, 82.896 217.552, 83.411 215.500 C 83.756 214.125, 84.469 213, 84.996 213 C 85.523 213, 86.691 214.125, 87.592 215.500 C 88.805 217.352, 90.108 218, 92.615 218 C 96.334 218, 96.703 217.343, 94.598 214.465 C 93.352 212.761, 93.459 212.304, 95.558 210.359 C 100.251 206.009, 99.667 198.964, 94.447 196.980 C 93.030 196.441, 89.208 196, 85.954 196 C 80.640 196, 79.985 196.229, 79.516 198.250 M 103.692 196.750 C 102.546 198.765, 100.856 211.291, 101.424 213.555 C 102.290 217.002, 107.890 219.363, 113.110 218.481 C 118.440 217.581, 121.465 213.646, 123.414 205.078 C 125.505 195.886, 125.528 196, 121.571 196 C 118.192 196, 118.125 196.085, 117.027 201.750 C 115.087 211.752, 112.598 215.026, 109.380 211.808 C 107.914 210.343, 107.995 209.388, 110.527 198.250 C 110.981 196.252, 110.651 196, 107.578 196 C 105.675 196, 103.926 196.338, 103.692 196.750 M 128.516 198.250 C 127.102 204.344, 125 215.293, 125 216.565 C 125 218.611, 139.041 218.549, 143.393 216.484 C 148.998 213.824, 151.729 206.099, 148.920 200.850 C 147.341 197.901, 141.906 196, 135.051 196 C 129.637 196, 128.986 196.224, 128.516 198.250 M 155 196.390 C 155 196.604, 154.100 201.154, 153 206.500 C 151.900 211.846, 151 216.621, 151 217.110 C 151 217.600, 155.002 218, 159.893 218 C 167.080 218, 168.902 217.697, 169.393 216.418 C 170.550 213.403, 169.973 213, 164.500 213 C 160.278 213, 159 212.652, 159 211.500 C 159 210.371, 160.210 210, 163.893 210 C 167.432 210, 168.954 209.562, 169.393 208.418 C 170.786 204.787, 170.093 204, 165.500 204 C 163.025 204, 161 203.550, 161 203 C 161 202.450, 163.423 202, 166.383 202 C 171.121 202, 171.839 201.730, 172.370 199.750 C 172.701 198.512, 172.979 197.162, 172.986 196.750 C 172.994 196.338, 168.950 196, 164 196 C 159.050 196, 155 196.175, 155 196.390 M 174.048 196.690 C 174.075 197.135, 175.120 202, 176.371 207.500 L 178.645 217.500 182.573 217.786 C 186.483 218.072, 186.521 218.038, 191.256 210.286 C 193.871 206.004, 196.953 201.037, 198.104 199.250 L 200.196 196 196.348 196.017 C 192.673 196.034, 192.322 196.334, 188.550 202.668 C 186.305 206.438, 184.403 208.710, 184.144 207.933 C 183.893 207.180, 183.188 204.300, 182.576 201.532 C 181.503 196.676, 181.333 196.489, 177.732 196.190 C 175.679 196.019, 174.022 196.244, 174.048 196.690 M 59.691 202.694 C 59.418 203.137, 58.875 205.637, 58.484 208.250 C 57.804 212.790, 57.878 213, 60.164 213 C 61.479 213, 63.580 212.282, 64.832 211.405 C 66.624 210.150, 67.044 209.031, 66.805 206.155 C 66.530 202.862, 66.187 202.470, 63.344 202.194 C 61.608 202.025, 59.964 202.250, 59.691 202.694 M 86 202.918 C 86 203.423, 85.727 204.548, 85.393 205.418 C 84.923 206.644, 85.461 207, 87.786 207 C 90.727 207, 92.646 204.854, 91.444 202.910 C 90.709 201.720, 86 201.727, 86 202.918 M 134.655 203.750 C 134.391 204.713, 133.890 207.188, 133.542 209.250 C 132.946 212.781, 133.061 213, 135.500 213 C 138.097 213, 143 209.064, 143 206.980 C 143 206.369, 142.534 204.998, 141.965 203.934 C 140.612 201.406, 135.334 201.273, 134.655 203.750" stroke="none" fill="#2a2824" fill-rule="evenodd"/><path d="M 87.687 32.805 C 86.209 34.347, 85 35.984, 85 36.443 C 85 36.901, 86.688 39.134, 88.750 41.405 C 90.813 43.676, 93.780 47.102, 95.345 49.017 L 98.189 52.500 95.494 48.684 C 94.011 46.586, 92.995 44.672, 93.235 44.432 C 93.898 43.768, 106.314 50.155, 107.824 51.937 C 108.552 52.797, 108.846 52.909, 108.476 52.186 C 107.945 51.149, 108.612 51.043, 111.652 51.686 C 116.597 52.732, 132.377 52.738, 137.298 51.696 L 141.096 50.891 139.051 54.900 C 137.428 58.081, 136.291 59.042, 133.541 59.558 C 128.324 60.537, 112.726 59.678, 112.296 58.388 C 112.094 57.781, 111.244 56.432, 110.409 55.392 C 108.963 53.591, 108.940 53.605, 109.945 55.684 C 110.525 56.886, 111 58.099, 111 58.380 C 111 59.423, 100.472 55.742, 99.724 54.437 C 99.297 53.692, 98.375 53.303, 97.675 53.571 C 96.474 54.032, 87.817 48.737, 81.730 43.818 L 78.959 41.579 75.829 44.709 L 72.700 47.839 78.029 54.669 C 85.534 64.287, 87.962 66.255, 81.183 57.225 L 78.724 53.950 84.112 57.597 C 87.075 59.603, 90.695 61.669, 92.156 62.187 C 93.643 62.715, 95.352 64.435, 96.040 66.097 C 96.716 67.729, 97.470 68.863, 97.716 68.618 C 97.961 68.372, 97.670 67.252, 97.069 66.129 C 95.983 64.101, 96.007 64.098, 100.636 65.793 C 104.171 67.088, 105.622 68.277, 106.648 70.718 C 107.391 72.488, 108 74.175, 108 74.468 C 108 75.356, 105.293 75.066, 102.315 73.859 C 100.767 73.231, 98.825 72.620, 98 72.501 C 95.490 72.138, 88 68.829, 88 68.083 C 88 67.697, 87.300 66.509, 86.445 65.441 C 84.954 63.580, 84.935 63.594, 85.990 65.768 C 87.029 67.911, 86.819 67.870, 82.189 65.021 C 79.494 63.363, 75.242 60.204, 72.741 58.003 C 70.239 55.801, 67.784 54, 67.284 54 C 66.783 54, 65.052 55.388, 63.437 57.085 L 60.500 60.171 64.500 63.641 C 66.700 65.550, 71.720 69.322, 75.656 72.023 C 79.591 74.724, 83.043 77.511, 83.327 78.217 C 83.741 79.249, 83.858 79.251, 83.921 78.224 C 83.984 77.215, 84.575 77.239, 86.750 78.338 C 88.263 79.102, 92.510 80.716, 96.188 81.925 C 101.365 83.625, 102.973 84.617, 103.302 86.311 C 103.708 88.398, 103.734 88.403, 103.864 86.423 C 103.977 84.692, 104.513 84.422, 107.079 84.798 C 108.773 85.047, 110.411 85.907, 110.719 86.709 C 111.126 87.771, 111.477 87.847, 112.008 86.986 C 112.533 86.138, 114.916 86.009, 120.453 86.528 C 127.681 87.205, 128.132 87.385, 127.598 89.375 C 127.284 90.544, 127.021 92.063, 127.014 92.750 C 127.006 93.438, 125.905 94, 124.566 94 C 122.679 94, 122.039 93.383, 121.716 91.250 L 121.300 88.500 121.150 91.310 C 121.011 93.920, 120.735 94.099, 117.289 93.810 C 114.310 93.561, 113.443 93.007, 112.889 91 C 112.235 88.628, 112.194 88.616, 112.100 90.750 C 111.943 94.283, 106.134 93.692, 104.729 90 C 104.278 88.814, 104.141 88.871, 104.079 90.269 C 104.016 91.683, 103.447 91.906, 101.250 91.381 C 96.823 90.322, 95.168 89.152, 94.706 86.752 L 94.272 84.500 94.136 86.817 C 94.023 88.737, 93.614 89.017, 91.750 88.450 C 86.311 86.794, 75 81.020, 75 79.898 C 75 79.221, 74.718 78.949, 74.373 79.294 C 73.549 80.118, 65.688 74.690, 59.922 69.316 L 55.345 65.049 52.090 68.407 L 48.835 71.766 52.528 76.633 C 56.903 82.398, 58.037 83.527, 55.704 79.795 C 54.307 77.561, 55.187 77.968, 60.756 82.135 C 64.465 84.909, 68.063 87.900, 68.750 88.781 C 69.438 89.662, 70 90.062, 70 89.671 C 70 89.280, 71.912 89.955, 74.250 91.172 C 76.588 92.389, 78.950 93.482, 79.500 93.600 C 80.050 93.719, 82.188 94.539, 84.250 95.422 C 87.688 96.893, 88.014 97.380, 88.168 101.263 L 88.336 105.500 88.728 101.750 C 89.151 97.709, 89.525 97.489, 93.435 98.975 C 95.755 99.857, 96 100.471, 96 105.392 C 96 108.385, 95.539 111.062, 94.975 111.342 C 94.411 111.621, 94.524 111.736, 95.225 111.596 C 96.034 111.435, 96.610 109.269, 96.800 105.671 C 97.111 99.782, 97.315 99.595, 102 100.890 C 103.969 101.435, 104.629 102.422, 105.108 105.541 L 105.716 109.500 105.858 105.750 C 106.004 101.906, 106.601 101.518, 110.693 102.615 C 112.086 102.989, 113.035 104.171, 113.294 105.852 L 113.700 108.500 113.850 105.750 C 113.987 103.233, 114.339 103, 118 103 C 121.600 103, 122 103.250, 122 105.500 C 122 107.929, 122.200 108, 129 108 C 135.709 108, 136 107.901, 136 105.617 C 136 103.990, 136.715 103.042, 138.250 102.630 C 142.241 101.561, 143 101.920, 143 104.878 C 143 108.373, 144.358 109.608, 149.197 110.512 L 152.894 111.203 153.197 105.430 C 153.477 100.103, 153.717 99.586, 156.313 98.725 C 157.859 98.212, 159.296 97.962, 159.504 98.171 C 159.712 98.379, 159.973 101.935, 160.082 106.074 L 160.281 113.598 165.440 115.628 L 170.600 117.659 170.180 108.876 C 169.559 95.900, 170.249 93.424, 175.187 90.905 L 179.281 88.816 178.637 91.158 C 177.096 96.758, 176.776 108.341, 177.972 115.229 L 179.235 122.500 186.258 127.500 C 198.370 136.123, 197.773 135.752, 195.780 133.420 C 194.834 132.314, 192.634 128.279, 190.891 124.454 C 188.294 118.756, 187.632 115.840, 187.228 108.308 C 186.518 95.114, 189.445 85.539, 197.167 75.789 L 200.269 71.873 196.930 68.428 L 193.592 64.984 189.546 68.821 C 183.710 74.355, 177.003 79.337, 176.315 78.648 C 175.554 77.887, 181.611 67.872, 185.227 63.913 C 186.752 62.243, 188 60.543, 188 60.134 C 188 59.726, 186.513 57.951, 184.694 56.188 L 181.389 52.985 178.444 56.097 C 175.958 58.726, 168.269 64.429, 163.105 67.475 C 160.900 68.775, 166.457 60.025, 171.459 54.321 C 173.956 51.472, 176 48.744, 176 48.258 C 176 47.772, 174.681 46.111, 173.069 44.566 L 170.138 41.758 164.319 46.275 C 157.910 51.249, 149.313 55.967, 150.563 53.824 C 152.214 50.995, 157.519 44.314, 161.179 40.454 L 165.016 36.408 161.592 33.089 L 158.168 29.771 154.334 32.823 C 144.817 40.400, 135.003 43.414, 121.748 42.832 C 114.009 42.493, 111.440 41.924, 106 39.348 C 102.425 37.656, 97.751 34.860, 95.612 33.135 C 93.474 31.411, 91.421 30, 91.050 30 C 90.678 30, 89.165 31.262, 87.687 32.805 M 90 41.378 C 90 41.585, 90.787 42.373, 91.750 43.128 C 93.336 44.371, 93.371 44.336, 92.128 42.750 C 90.821 41.084, 90 40.555, 90 41.378 M 65 65.378 C 65 65.585, 65.787 66.373, 66.750 67.128 C 68.336 68.371, 68.371 68.336, 67.128 66.750 C 65.821 65.084, 65 64.555, 65 65.378 M 147.123 66.283 C 144.712 67.053, 143.337 68.342, 142.315 70.789 C 141.527 72.674, 141.131 74.465, 141.435 74.768 C 141.739 75.072, 143.678 74.807, 145.744 74.179 C 148.740 73.269, 149.839 72.225, 151.176 69.019 C 153.003 64.637, 152.769 64.479, 147.123 66.283 M 107.354 69.480 C 107.714 70.418, 108.272 72.236, 108.594 73.520 C 109.045 75.315, 110.113 76.012, 113.214 76.536 C 116.123 77.028, 117.488 76.839, 118.108 75.859 C 118.741 74.861, 118.973 74.832, 118.985 75.750 C 118.995 76.595, 120.763 77, 124.441 77 C 130.283 77, 130.379 76.941, 131.400 72.673 L 132.077 69.845 124.036 70.173 C 119.613 70.353, 115.883 70.216, 115.747 69.868 C 115.611 69.520, 113.520 68.907, 111.100 68.505 C 107.202 67.857, 106.774 67.969, 107.354 69.480 M 160.562 79.304 C 157.843 80.844, 156.297 82.621, 155.394 85.250 C 153.963 89.411, 154.419 89.687, 159.334 87.634 C 161.868 86.575, 162.888 85.316, 163.871 82.037 C 164.568 79.709, 164.982 77.649, 164.790 77.457 C 164.599 77.265, 162.696 78.097, 160.562 79.304 M 142 84.707 C 138.964 85.235, 137 87.585, 137 90.691 C 137 92.436, 137.564 93, 139.309 93 C 140.579 93, 142.323 92.438, 143.185 91.750 C 144.782 90.477, 146.547 83.888, 145.225 84.136 C 144.826 84.211, 143.375 84.468, 142 84.707 M 71.079 98.583 C 71.127 99.748, 71.364 99.985, 71.683 99.188 C 71.972 98.466, 71.936 97.603, 71.604 97.271 C 71.272 96.939, 71.036 97.529, 71.079 98.583 M 79.252 100.500 C 79.263 102.700, 79.468 103.482, 79.707 102.238 C 79.946 100.994, 79.937 99.194, 79.687 98.238 C 79.437 97.282, 79.241 98.300, 79.252 100.500 M 123 105 C 123 106.301, 123.667 107, 124.906 107 C 126.320 107, 126.678 106.483, 126.290 105 C 126.002 103.900, 125.144 103, 124.383 103 C 123.623 103, 123 103.900, 123 105 M 79.252 110.500 C 79.263 112.700, 79.468 113.482, 79.707 112.238 C 79.946 110.994, 79.937 109.194, 79.687 108.238 C 79.437 107.282, 79.241 108.300, 79.252 110.500 M 88.252 110.500 C 88.263 112.700, 88.468 113.482, 88.707 112.238 C 88.946 110.994, 88.937 109.194, 88.687 108.238 C 88.437 107.282, 88.241 108.300, 88.252 110.500 M 121.437 117.305 C 121.103 118.173, 121.042 119.697, 121.299 120.692 C 121.606 121.875, 121.808 121.549, 121.884 119.750 C 121.977 117.539, 122.475 117, 124.421 117 C 126.293 117, 126.989 117.674, 127.495 119.976 C 127.854 121.612, 127.930 123.304, 127.663 123.736 C 127.396 124.168, 129.607 124.654, 132.575 124.817 L 137.973 125.113 137.341 121.955 C 136.907 119.783, 137.145 118.522, 138.105 117.914 C 139.069 117.304, 138.418 117.023, 136 117.007 C 134.075 116.993, 130.147 116.700, 127.271 116.355 C 123.039 115.846, 121.927 116.027, 121.437 117.305 M 110.189 117.677 C 111.117 117.922, 112.068 119.108, 112.302 120.311 C 112.652 122.113, 112.752 122.014, 112.864 119.750 C 112.976 117.494, 112.596 117.021, 110.750 117.116 C 109.156 117.198, 108.992 117.362, 110.189 117.677 M 104.079 120.250 C 104.132 121.753, 104.347 122.002, 104.729 121 C 105.043 120.175, 105.795 119.169, 106.400 118.765 C 107.078 118.312, 106.829 118.025, 105.750 118.015 C 104.574 118.005, 104.026 118.738, 104.079 120.250 M 143.144 118.669 C 144.897 119.135, 146.337 125.120, 144.915 126.033 C 144.459 126.326, 146.740 127.257, 149.984 128.102 L 155.882 129.639 155.691 125.385 L 155.500 121.132 149.294 119.566 C 145.881 118.705, 142.731 118.052, 142.294 118.116 C 141.858 118.180, 142.240 118.429, 143.144 118.669 M 93.710 123 C 93.998 124.100, 94.406 125, 94.617 125 C 94.827 125, 95 124.100, 95 123 C 95 121.900, 94.592 121, 94.094 121 C 93.595 121, 93.423 121.900, 93.710 123 M 103.079 124.750 C 103.026 126.262, 103.574 126.995, 104.750 126.985 C 105.829 126.975, 106.078 126.688, 105.400 126.235 C 104.795 125.831, 104.043 124.825, 103.729 124 C 103.347 122.998, 103.132 123.247, 103.079 124.750 M 111 123.760 C 111 124.361, 110.213 125.059, 109.250 125.311 C 107.672 125.723, 107.666 125.779, 109.191 125.884 C 110.995 126.008, 112.599 124.266, 111.600 123.267 C 111.270 122.937, 111 123.159, 111 123.760 M 163.570 127.513 C 164.425 129.559, 164.877 131.879, 164.574 132.669 C 164.271 133.458, 164.429 133.853, 164.926 133.546 C 165.423 133.239, 165.980 133.328, 166.165 133.744 C 166.438 134.360, 176.933 141.665, 182.891 145.386 C 183.671 145.874, 183.168 144.749, 181.773 142.886 C 179.259 139.530, 176 133.662, 176 132.491 C 176 132.156, 176.450 132.160, 177 132.500 C 177.550 132.840, 178 132.888, 178 132.608 C 178 132.058, 166.628 125.549, 163.758 124.455 C 162.126 123.834, 162.114 124.028, 163.570 127.513 M 54.511 131.623 C 53.566 133.066, 53.287 133.941, 53.891 133.567 C 55.045 132.854, 57.374 129, 56.650 129 C 56.419 129, 55.457 130.180, 54.511 131.623 M 117.199 136.729 C 115.625 141.983, 115.633 142.019, 118.250 141.884 C 119.943 141.797, 120.067 141.655, 118.750 141.311 C 116.679 140.770, 116.728 141.079, 118.098 137.149 C 119.162 134.097, 119.377 134, 125.098 134 C 129.146 134, 131.004 134.393, 131.014 135.250 C 131.021 135.938, 131.299 137.512, 131.630 138.750 C 132.092 140.472, 131.795 141.031, 130.367 141.131 C 129.340 141.203, 130.975 141.599, 134 142.010 C 137.025 142.421, 140.846 143.113, 142.490 143.548 C 145.331 144.298, 145.394 144.251, 143.740 142.597 C 142.783 141.640, 142 140.476, 142 140.010 C 142 139.545, 141.727 138.452, 141.393 137.582 C 140.980 136.504, 141.378 135.967, 142.643 135.898 C 146.663 135.676, 136.977 134.026, 127.949 133.394 L 118.399 132.725 117.199 136.729 M 50.464 137.040 C 48.654 139.040, 48.684 139.141, 52.036 142.290 L 55.454 145.500 52.557 142.267 C 49.733 139.117, 49.705 138.983, 51.484 137.017 C 52.488 135.908, 53.085 135, 52.810 135 C 52.535 135, 51.479 135.918, 50.464 137.040 M 106.292 135.697 C 107.586 136.034, 107.915 136.764, 107.476 138.331 C 106.996 140.047, 107.088 140.187, 107.919 139 C 109.627 136.560, 109.155 134.992, 106.750 135.116 C 104.993 135.207, 104.892 135.334, 106.292 135.697 M 182 135.378 C 182 135.585, 182.787 136.373, 183.750 137.128 C 185.336 138.371, 185.371 138.336, 184.128 136.750 C 182.821 135.084, 182 134.555, 182 135.378 M 145.813 136.683 C 146.534 136.972, 147.397 136.936, 147.729 136.604 C 148.061 136.272, 147.471 136.036, 146.417 136.079 C 145.252 136.127, 145.015 136.364, 145.813 136.683 M 151.029 141.567 C 152.074 144.005, 152.607 146.022, 152.214 146.048 C 151.822 146.075, 154.179 147.478, 157.454 149.167 C 163.647 152.361, 172.575 158.578, 174.772 161.226 C 175.841 162.513, 175.479 163.250, 172.486 165.878 C 170.531 167.595, 169.308 169, 169.769 169 C 170.230 169, 172.049 167.513, 173.812 165.694 L 177.015 162.389 173.872 159.444 C 170.217 156.021, 162.833 145.079, 163.476 144.039 C 163.946 143.278, 158.819 140.590, 152.814 138.449 L 149.129 137.134 151.029 141.567 M 60.405 140.250 L 58.500 142.500 60.750 140.595 C 62.864 138.805, 63.455 138, 62.655 138 C 62.465 138, 61.453 139.012, 60.405 140.250 M 186 138.313 C 186 138.485, 187.463 139.948, 189.250 141.563 L 192.500 144.500 189.563 141.250 C 186.825 138.221, 186 137.540, 186 138.313 M 196.437 142.250 L 193.500 145.500 196.750 142.563 C 199.779 139.825, 200.460 139, 199.687 139 C 199.515 139, 198.052 140.463, 196.437 142.250 M 105.564 142.707 C 105.022 144.132, 105.136 144.247, 106.124 143.267 C 106.808 142.588, 107.115 141.781, 106.807 141.474 C 106.499 141.166, 105.940 141.721, 105.564 142.707 M 87 142.892 C 87 143.566, 86.480 143.797, 85.845 143.405 C 85.101 142.945, 84.964 143.132, 85.458 143.933 C 86.004 144.815, 86.536 144.864, 87.296 144.104 C 87.885 143.515, 88.059 142.726, 87.683 142.350 C 87.308 141.974, 87 142.218, 87 142.892 M 65.872 144.750 C 64.629 146.336, 64.664 146.371, 66.250 145.128 C 67.213 144.373, 68 143.585, 68 143.378 C 68 142.555, 67.179 143.084, 65.872 144.750 M 95.638 145.500 C 95.291 146.405, 95.633 147, 96.500 147 C 97.367 147, 97.709 146.405, 97.362 145.500 C 97.045 144.675, 96.657 144, 96.500 144 C 96.343 144, 95.955 144.675, 95.638 145.500 M 84 148 C 83.411 149.100, 83.155 150, 83.430 150 C 83.705 150, 84.411 149.100, 85 148 C 85.589 146.900, 85.845 146, 85.570 146 C 85.295 146, 84.589 146.900, 84 148 M 72.405 152.250 L 70.500 154.500 72.750 152.595 C 74.864 150.805, 75.455 150, 74.655 150 C 74.465 150, 73.453 151.012, 72.405 152.250 M 118.250 150.689 C 119.213 150.941, 120.787 150.941, 121.750 150.689 C 122.713 150.438, 121.925 150.232, 120 150.232 C 118.075 150.232, 117.287 150.438, 118.250 150.689 M 128.269 150.693 C 129.242 150.947, 130.592 150.930, 131.269 150.656 C 131.946 150.382, 131.150 150.175, 129.500 150.195 C 127.850 150.215, 127.296 150.439, 128.269 150.693 M 61 151.313 C 61 151.485, 62.462 152.948, 64.250 154.563 L 67.500 157.500 64.563 154.250 C 61.825 151.221, 61 150.540, 61 151.313 M 80.872 152.750 C 79.629 154.336, 79.664 154.371, 81.250 153.128 C 82.213 152.373, 83 151.585, 83 151.378 C 83 150.555, 82.179 151.084, 80.872 152.750 M 136.575 151.720 C 137.166 152.149, 138.516 154.359, 139.575 156.630 C 140.968 159.620, 142.445 161.104, 144.920 162.006 C 149.565 163.699, 157.847 168.609, 161.500 171.837 C 163.836 173.901, 163.698 173.604, 160.873 170.494 C 155.745 164.846, 150.948 157.893, 151.530 156.951 C 151.802 156.512, 149.656 155.281, 146.762 154.217 C 140.655 151.970, 135.016 150.588, 136.575 151.720 M 175 151.378 C 175 151.585, 175.787 152.373, 176.750 153.128 C 178.336 154.371, 178.371 154.336, 177.128 152.750 C 175.821 151.084, 175 150.555, 175 151.378 M 184.437 154.250 L 181.500 157.500 184.750 154.563 C 187.779 151.825, 188.460 151, 187.687 151 C 187.515 151, 186.052 152.463, 184.437 154.250 M 109.564 155.707 C 109.022 157.132, 109.136 157.247, 110.124 156.267 C 110.808 155.588, 111.115 154.781, 110.807 154.474 C 110.499 154.166, 109.940 154.721, 109.564 155.707 M 76.924 157.750 L 74.500 160.500 77.250 158.076 C 78.763 156.742, 80 155.505, 80 155.326 C 80 154.541, 79.190 155.180, 76.924 157.750 M 98.564 156.707 C 98.022 158.132, 98.136 158.247, 99.124 157.267 C 99.808 156.588, 100.115 155.781, 99.807 155.474 C 99.499 155.166, 98.940 155.721, 98.564 156.707 M 107.459 159.067 C 107.096 159.653, 107.014 160.348, 107.276 160.610 C 107.538 160.872, 108.019 160.392, 108.345 159.543 C 109.021 157.781, 108.445 157.471, 107.459 159.067 M 115.813 158.683 C 116.534 158.972, 117.397 158.936, 117.729 158.604 C 118.061 158.272, 117.471 158.036, 116.417 158.079 C 115.252 158.127, 115.015 158.364, 115.813 158.683 M 131.813 158.683 C 132.534 158.972, 133.397 158.936, 133.729 158.604 C 134.061 158.272, 133.471 158.036, 132.417 158.079 C 131.252 158.127, 131.015 158.364, 131.813 158.683 M 95 162 C 93.825 163.650, 93.089 165, 93.364 165 C 93.639 165, 94.825 163.650, 96 162 C 97.175 160.350, 97.911 159, 97.636 159 C 97.361 159, 96.175 160.350, 95 162 M 75.746 165.999 L 78.991 169.453 81.246 167.014 L 83.500 164.574 81.233 166.458 C 78.988 168.323, 78.934 168.313, 75.733 165.443 L 72.500 162.546 75.746 165.999 M 88.453 170.250 L 84.500 174.500 88.750 170.547 C 92.702 166.871, 93.460 166, 92.703 166 C 92.540 166, 90.627 167.912, 88.453 170.250 M 87.742 177.995 C 90.915 181.372, 91.021 181.404, 92.742 179.527 C 94.422 177.694, 94.421 177.669, 92.714 178.957 C 91.153 180.135, 90.522 179.941, 87.714 177.425 L 84.500 174.546 87.742 177.995 M 117.079 197.583 C 117.127 198.748, 117.364 198.985, 117.683 198.188 C 117.972 197.466, 117.936 196.603, 117.604 196.271 C 117.272 195.939, 117.036 196.529, 117.079 197.583 M 102.079 200.583 C 102.127 201.748, 102.364 201.985, 102.683 201.188 C 102.972 200.466, 102.936 199.603, 102.604 199.271 C 102.272 198.939, 102.036 199.529, 102.079 200.583 M 172.079 200.583 C 172.127 201.748, 172.364 201.985, 172.683 201.188 C 172.972 200.466, 172.936 199.603, 172.604 199.271 C 172.272 198.939, 172.036 199.529, 172.079 200.583 M 127.079 201.583 C 127.127 202.748, 127.364 202.985, 127.683 202.188 C 127.972 201.466, 127.936 200.603, 127.604 200.271 C 127.272 199.939, 127.036 200.529, 127.079 201.583 M 116.079 202.583 C 116.127 203.748, 116.364 203.985, 116.683 203.188 C 116.972 202.466, 116.936 201.603, 116.604 201.271 C 116.272 200.939, 116.036 201.529, 116.079 202.583 M 64 202.393 C 64 202.609, 64.698 203.054, 65.552 203.382 C 66.442 203.723, 66.843 203.555, 66.493 202.989 C 65.906 202.038, 64 201.583, 64 202.393 M 90.564 203.293 C 90.940 204.279, 91.499 204.834, 91.807 204.526 C 92.115 204.219, 91.808 203.412, 91.124 202.733 C 90.136 201.753, 90.022 201.868, 90.564 203.293 M 139 202.393 C 139 202.609, 139.698 203.054, 140.552 203.382 C 141.442 203.723, 141.843 203.555, 141.493 202.989 C 140.906 202.038, 139 201.583, 139 202.393 M 183.079 204.583 C 183.127 205.748, 183.364 205.985, 183.683 205.188 C 183.972 204.466, 183.936 203.603, 183.604 203.271 C 183.272 202.939, 183.036 203.529, 183.079 204.583 M 101.079 205.583 C 101.127 206.748, 101.364 206.985, 101.683 206.188 C 101.972 205.466, 101.936 204.603, 101.604 204.271 C 101.272 203.939, 101.036 204.529, 101.079 205.583 M 126.079 206.583 C 126.127 207.748, 126.364 207.985, 126.683 207.188 C 126.972 206.466, 126.936 205.603, 126.604 205.271 C 126.272 204.939, 126.036 205.529, 126.079 206.583 M 142.079 206.583 C 142.127 207.748, 142.364 207.985, 142.683 207.188 C 142.972 206.466, 142.936 205.603, 142.604 205.271 C 142.272 204.939, 142.036 205.529, 142.079 206.583 M 97.564 207.707 C 97.022 209.132, 97.136 209.247, 98.124 208.267 C 98.808 207.588, 99.115 206.781, 98.807 206.474 C 98.499 206.166, 97.940 206.721, 97.564 207.707 M 115.079 207.583 C 115.127 208.748, 115.364 208.985, 115.683 208.188 C 115.972 207.466, 115.936 206.603, 115.604 206.271 C 115.272 205.939, 115.036 206.529, 115.079 207.583 M 108.079 209.583 C 108.127 210.748, 108.364 210.985, 108.683 210.188 C 108.972 209.466, 108.936 208.603, 108.604 208.271 C 108.272 207.939, 108.036 208.529, 108.079 209.583 M 50.079 210.583 C 50.127 211.748, 50.364 211.985, 50.683 211.188 C 50.972 210.466, 50.936 209.603, 50.604 209.271 C 50.272 208.939, 50.036 209.529, 50.079 210.583 M 125.079 211.583 C 125.127 212.748, 125.364 212.985, 125.683 212.188 C 125.972 211.466, 125.936 210.603, 125.604 210.271 C 125.272 209.939, 125.036 210.529, 125.079 211.583 M 159.079 211.161 C 159.016 212.495, 160.164 212.889, 164.907 213.161 C 168.156 213.348, 170.605 213.162, 170.348 212.750 C 170.092 212.338, 167.696 212, 165.024 212 C 162.074 212, 159.969 211.509, 159.662 210.750 C 159.347 209.968, 159.128 210.122, 159.079 211.161 M 59.269 212.693 C 60.242 212.947, 61.592 212.930, 62.269 212.656 C 62.946 212.382, 62.150 212.175, 60.500 212.195 C 58.850 212.215, 58.296 212.439, 59.269 212.693 M 110.813 212.683 C 111.534 212.972, 112.397 212.936, 112.729 212.604 C 113.061 212.272, 112.471 212.036, 111.417 212.079 C 110.252 212.127, 110.015 212.364, 110.813 212.683 M 134.269 212.693 C 135.242 212.947, 136.592 212.930, 137.269 212.656 C 137.946 212.382, 137.150 212.175, 135.500 212.195 C 133.850 212.215, 133.296 212.439, 134.269 212.693 M 70.872 214.750 C 69.629 216.336, 69.664 216.371, 71.250 215.128 C 72.916 213.821, 73.445 213, 72.622 213 C 72.415 213, 71.627 213.787, 70.872 214.750 M 49.079 215.583 C 49.127 216.748, 49.364 216.985, 49.683 216.188 C 49.972 215.466, 49.936 214.603, 49.604 214.271 C 49.272 213.939, 49.036 214.529, 49.079 215.583 M 118.405 216.250 L 116.500 218.500 118.750 216.595 C 120.864 214.805, 121.455 214, 120.655 214 C 120.465 214, 119.453 215.012, 118.405 216.250 M 83 216.438 C 83 217.902, 82.305 218.144, 79 217.829 C 76.800 217.619, 75 217.797, 75 218.224 C 75 219.769, 83.041 219.057, 83.655 217.457 C 83.981 216.608, 83.966 215.633, 83.624 215.290 C 83.281 214.947, 83 215.464, 83 216.438 M 124.116 216.750 C 124.004 218.926, 124.271 218.993, 132.250 218.799 L 140.500 218.598 132.815 218.258 C 126.588 217.983, 125.046 217.594, 124.681 216.209 C 124.356 214.973, 124.200 215.122, 124.116 216.750 M 169 216.833 C 169 217.623, 166.013 218.066, 159.750 218.206 L 150.500 218.411 159.409 218.747 C 167.644 219.057, 171.493 218.159, 169.683 216.350 C 169.308 215.974, 169 216.192, 169 216.833 M 88.655 218.250 C 88.909 218.662, 90.891 219, 93.059 219 C 95.227 219, 97 218.662, 97 218.250 C 97 217.838, 95.018 217.500, 92.595 217.500 C 90.173 217.500, 88.400 217.838, 88.655 218.250 M 178.915 218.315 C 179.367 218.767, 181.483 218.984, 183.618 218.797 L 187.500 218.458 182.796 217.975 C 180.210 217.710, 178.463 217.863, 178.915 218.315 M 52.776 218.733 C 55.128 218.945, 58.728 218.942, 60.776 218.727 C 62.824 218.512, 60.900 218.339, 56.500 218.343 C 52.100 218.346, 50.424 218.522, 52.776 218.733 M 113.813 218.683 C 114.534 218.972, 115.397 218.936, 115.729 218.604 C 116.061 218.272, 115.471 218.036, 114.417 218.079 C 113.252 218.127, 113.015 218.364, 113.813 218.683" stroke="none" fill="#dc6e0a" fill-rule="evenodd"/></svg>